<svg xmlns="http://www.w3.org/2000/svg" width="177.178" height="50.437" viewBox="0 0 177.178 50.437">
  <g id="pro-carrier-logo" transform="translate(-59.077 -432.68)">
    <path id="Path_341" data-name="Path 341" d="M78.826,432.989a19.768,19.768,0,0,0-19.749,19.749c0,10.892,11.5,23.269,19.749,30.365,8.251-7.1,19.748-19.474,19.748-30.365A19.767,19.767,0,0,0,78.826,432.989Z" transform="translate(0 0.013)" fill="#2c1f72"/>
    <g id="Group_261" data-name="Group 261" transform="translate(66.76 439.847)">
      <g id="Group_260" data-name="Group 260">
        <path id="Path_342" data-name="Path 342" d="M78.115,439.552a2.5,2.5,0,0,0-2.5,2.5v6.714l2.5,1.443,2.5-1.443v-6.714a2.5,2.5,0,0,0-2.5-2.5" transform="translate(-66.049 -439.552)" fill="#e72f70"/>
        <path id="Path_343" data-name="Path 343" d="M78.115,455.307l-2.5,1.443v6.715a2.5,2.5,0,1,0,5,0V456.75l-2.5-1.443" transform="translate(-66.049 -438.875)" fill="#e72f70"/>
        <path id="Path_344" data-name="Path 344" d="M68.946,444.847a2.5,2.5,0,0,0-1.253,4.665l5.815,3.357,2.5-1.444v-2.887l-5.816-3.357a2.484,2.484,0,0,0-1.247-.335" transform="translate(-66.443 -439.324)" fill="#e2de00"/>
        <path id="Path_345" data-name="Path 345" d="M82.909,452.539l-2.5,1.443v2.887l5.815,3.357a2.5,2.5,0,0,0,2.5-4.33l-5.816-3.357" transform="translate(-65.843 -438.994)" fill="#e2de00"/>
        <path id="Path_346" data-name="Path 346" d="M73.508,452.539,67.694,455.9a2.5,2.5,0,1,0,2.5,4.33l5.816-3.357v-2.887l-2.5-1.443" transform="translate(-66.443 -438.994)" fill="#46baba"/>
        <path id="Path_347" data-name="Path 347" d="M87.472,444.847a2.49,2.49,0,0,0-1.248.335l-5.815,3.357v2.887l2.5,1.444,5.816-3.357a2.5,2.5,0,0,0-1.253-4.665" transform="translate(-65.843 -439.324)" fill="#46baba"/>
        <path id="Path_348" data-name="Path 348" d="M80.718,451.274v-2.887l-2.5,1.443-2.5-1.443v2.887l-2.5,1.443,2.5,1.444v2.887l2.5-1.443,2.5,1.443v-2.887l2.5-1.444Z" transform="translate(-66.152 -439.172)" fill="#fff"/>
      </g>
    </g>
    <path id="Path_349" data-name="Path 349" d="M116.188,448.785h-3.195v7.181h-5.817V432.989h8.688c9.12,0,9.8,4.883,9.8,8.006C125.667,444.083,125.235,448.785,116.188,448.785Zm-.179-11.057h-3.015v6.534h3.015c3.3,0,3.769-1.831,3.769-3.268S119.311,437.728,116.009,437.728Z" transform="translate(2.068 0.013)" fill="#46baba"/>
    <path id="Path_350" data-name="Path 350" d="M139.706,455.966l-6.569-8.688v8.688h-5.816V432.989h8.8c8.832,0,9.693,4.667,9.693,7.684,0,2.549-.9,6.533-6.39,6.857l7.395,8.437Zm-3.662-18.238h-2.907v5.816h2.907c3.2,0,3.879-1.544,3.879-2.871C139.923,439.236,139.241,437.728,136.044,437.728Z" transform="translate(2.933 0.013)" fill="#46baba"/>
    <path id="Path_351" data-name="Path 351" d="M158.119,456.3c-9.154,0-11.094-5.708-11.094-11.811S149,432.68,158.119,432.68c9.19,0,11.165,5.708,11.165,11.847C169.284,450.593,167.309,456.3,158.119,456.3Zm0-18.919c-4.524,0-5.207,3.195-5.207,7.108,0,3.95.682,7.036,5.207,7.036,4.632,0,5.241-3.086,5.241-7C163.36,440.577,162.751,437.383,158.119,437.383Z" transform="translate(3.78 0)" fill="#46baba"/>
    <g id="Group_262" data-name="Group 262" transform="translate(108.455 459.711)">
      <path id="Path_352" data-name="Path 352" d="M116.975,482c-8.438,0-10.555-5.384-10.555-11.7s2.154-11.7,10.555-11.7c7.36,0,10.268,4.271,10.268,9.118H124.37c-.106-3.734-2.189-6.785-7.395-6.785-6.246,0-7.719,4.164-7.719,9.37s1.473,9.37,7.719,9.37c5.242,0,7.288-2.945,7.467-6.822h2.8C127.243,477.946,124.37,482,116.975,482Z" transform="translate(-106.42 -458.597)" fill="#2c1f72"/>
      <path id="Path_353" data-name="Path 353" d="M145.887,481.779l-1.94-4.882h-12.6l-1.973,4.882h-2.98l9.442-22.976h3.7l9.262,22.976Zm-8.222-20.858-5.529,13.822h11.022Z" transform="translate(-105.561 -458.588)" fill="#2c1f72"/>
      <path id="Path_354" data-name="Path 354" d="M156.046,472.409l11.345,9.37h-4.129l-10.949-9.692v9.692h-2.8V458.8h8.006c8.509,0,9.37,3.984,9.37,6.964,0,5.925-4.668,6.642-9.119,6.642ZM157.59,461.1h-5.277v9.191h5.457c5.744,0,6.283-2.406,6.283-4.524S163.407,461.1,157.59,461.1Z" transform="translate(-104.568 -458.588)" fill="#2c1f72"/>
      <path id="Path_355" data-name="Path 355" d="M175.4,472.409l11.346,9.37h-4.129l-10.949-9.692v9.692h-2.8V458.8h8.006c8.509,0,9.37,3.984,9.37,6.964,0,5.925-4.666,6.642-9.119,6.642Zm1.545-11.308h-5.278v9.191h5.457c5.744,0,6.282-2.406,6.282-4.524S182.762,461.1,176.946,461.1Z" transform="translate(-103.736 -458.588)" fill="#2c1f72"/>
      <path id="Path_356" data-name="Path 356" d="M188.224,481.779V458.8h2.8v22.976Z" transform="translate(-102.904 -458.588)" fill="#2c1f72"/>
      <path id="Path_357" data-name="Path 357" d="M194.519,481.779V458.8h15.688v2.3H197.319v7.79H209.13v2.3H197.319v8.293h12.887v2.3Z" transform="translate(-102.633 -458.588)" fill="#2c1f72"/>
      <path id="Path_358" data-name="Path 358" d="M218.344,472.409l11.346,9.37h-4.13l-10.948-9.692v9.692h-2.8V458.8h8.006c8.509,0,9.37,3.984,9.37,6.964,0,5.925-4.668,6.642-9.119,6.642Zm1.544-11.308h-5.276v9.191h5.457c5.743,0,6.282-2.406,6.282-4.524S225.7,461.1,219.888,461.1Z" transform="translate(-101.89 -458.588)" fill="#2c1f72"/>
    </g>
  </g>
</svg>
